<svg preserveAspectRatio="none" width="100%" height="100%" overflow="visible" style="display: block;" viewBox="0 0 292 292" fill="none" xmlns="http://www.w3.org/2000/svg">
<g id="Start_monitoring">
<path id="Ellipse 18" d="M270.37 146C270.37 214.688 214.688 270.37 146 270.37C77.3121 270.37 21.6296 214.688 21.6296 146C21.6296 77.3121 77.3121 21.6296 146 21.6296C214.688 21.6296 270.37 77.3121 270.37 146ZM24.1295 146C24.1295 213.307 78.6928 267.871 146 267.871C213.307 267.871 267.871 213.307 267.871 146C267.871 78.6928 213.307 24.1295 146 24.1295C78.6928 24.1295 24.1295 78.6928 24.1295 146Z" fill="var(--fill-0, #E6DEFF)"/>
<path id="Ellipse 19" d="M292 146C292 226.634 226.634 292 146 292C65.3664 292 0 226.634 0 146C0 65.3664 65.3664 0 146 0C226.634 0 292 65.3664 292 146ZM2.9346 146C2.9346 225.013 66.9872 289.065 146 289.065C225.013 289.065 289.065 225.013 289.065 146C289.065 66.9872 225.013 2.9346 146 2.9346C66.9872 2.9346 2.9346 66.9872 2.9346 146Z" fill="var(--fill-0, #F7F4FF)"/>
<g id="StartMonitoringButton">
<g id="Ellipse 16" filter="url(#filter0_d_60_179)">
<circle cx="146" cy="146" r="104.904" fill="var(--fill-0, #6B57F0)"/>
</g>
<g id="Ellipse 20">
<circle cx="146" cy="146" r="82" fill="var(--fill-0, #180351)"/>
<circle cx="146" cy="146" r="82" fill="url(#paint0_linear_60_179)" fill-opacity="0.2"/>
</g>
<g id="mic">
<path id="Rectangle 38" d="M135.59 121C135.59 115.477 140.067 111 145.59 111H147.167C152.69 111 157.167 115.477 157.167 121V134.974H135.59V121Z" fill="var(--fill-0, white)"/>
<path id="Rectangle 39" d="M135.59 147.75C135.59 153.273 140.067 157.75 145.59 157.75H147.167C152.69 157.75 157.167 153.273 157.167 147.75V138.571H135.59V147.75Z" fill="var(--fill-0, white)"/>
<path id="Ellipse 21" d="M164.209 146.962C165.616 146.962 166.773 148.106 166.598 149.502C166.036 153.97 164.006 158.153 160.788 161.371C156.966 165.193 151.783 167.34 146.378 167.34C140.974 167.34 135.79 165.193 131.969 161.371C128.751 158.153 126.72 153.97 126.159 149.502C125.984 148.106 127.14 146.962 128.547 146.962V146.962C129.954 146.962 131.073 148.11 131.306 149.497C131.83 152.61 133.31 155.507 135.571 157.769C138.437 160.635 142.325 162.245 146.378 162.245C150.432 162.245 154.319 160.635 157.185 157.769C159.447 155.507 160.927 152.61 161.45 149.497C161.684 148.11 162.802 146.962 164.209 146.962V146.962Z" fill="var(--fill-0, white)"/>
<rect id="Rectangle 40" x="143.981" y="166.141" width="4.79489" height="10.7885" fill="var(--fill-0, white)"/>
<rect id="Rectangle 41" x="131.994" y="180.526" width="4.79489" height="28.7693" rx="2.39744" transform="rotate(-90 131.994 180.526)" fill="var(--fill-0, white)"/>
</g>
</g>
</g>
<defs>
<filter id="filter0_d_60_179" x="33.8962" y="33.8963" width="224.207" height="224.207" filterUnits="userSpaceOnUse" color-interpolation-filters="sRGB">
<feFlood flood-opacity="0" result="BackgroundImageFix"/>
<feColorMatrix in="SourceAlpha" type="matrix" values="0 0 0 0 0 0 0 0 0 0 0 0 0 0 0 0 0 0 127 0" result="hardAlpha"/>
<feOffset/>
<feGaussianBlur stdDeviation="3.6"/>
<feComposite in2="hardAlpha" operator="out"/>
<feColorMatrix type="matrix" values="0 0 0 0 0.419608 0 0 0 0 0.341176 0 0 0 0 0.941176 0 0 0 1 0"/>
<feBlend mode="darken" in2="BackgroundImageFix" result="effect1_dropShadow_60_179"/>
<feBlend mode="normal" in="SourceGraphic" in2="effect1_dropShadow_60_179" result="shape"/>
</filter>
<linearGradient id="paint0_linear_60_179" x1="82.5" y1="94" x2="197.5" y2="208.5" gradientUnits="userSpaceOnUse">
<stop stop-color="white" stop-opacity="0"/>
<stop offset="1" stop-color="#DF0000"/>
</linearGradient>
</defs>
</svg>
